<svg xmlns="http://www.w3.org/2000/svg" style="display:none">

  <!-- ── Browsers ─────────────────────────────────────────────────────────── -->

  <symbol id="icon-chrome" viewBox="-0.82 0 437.46 437.46">
    <path d="M217.341.039s128.478-5.783 196.57 123.337H206.416s-39.188-1.289-72.593 46.255c-9.634 19.916-19.91 40.473-8.349 80.937C108.773 222.309 36.823 97.04 36.823 97.04S87.578 5.176 217.341.039z" fill="#c6352e"/>
    <path d="M407.223 327.871s-59.247 114.143-205.118 108.533c17.995-31.148 103.772-179.682 103.772-179.682s20.709-33.289-3.744-85.991c-12.431-18.305-25.09-37.486-65.919-47.713 32.836-.326 177.285.021 177.285.021s54.168 89.891-6.276 204.832z" fill="#f4d911"/>
    <path d="M28.373 328.738s-69.224-108.395 8.58-231.908c17.979 31.16 103.71 179.72 103.71 179.72s18.469 34.578 76.341 39.756c22.061-1.609 45.007-2.982 74.279-33.223-16.139 28.594-88.673 153.521-88.673 153.521S97.681 438.56 28.373 328.738z" fill="#81b354"/>
    <path d="M202.105 437.46l29.187-121.793s32.092-2.504 58.982-32.017c-16.693 29.365-88.169 153.81-88.169 153.81z" fill="#7baa50"/>
    <path d="M119.59 220.093c0-53.69 43.52-97.215 97.215-97.215 53.69 0 97.214 43.524 97.214 97.215 0 53.693-43.522 97.219-97.214 97.219-53.695 0-97.215-43.525-97.215-97.219z" fill="#ffffff"/>
    <linearGradient id="chrome-grad" gradientUnits="userSpaceOnUse" x1="-829.128" y1="1417.339" x2="-829.128" y2="1261.441" gradientTransform="matrix(1 0 0 -1 1045.93 1557.636)">
      <stop offset="0" stop-color="#a2c0e6"/>
      <stop offset="1" stop-color="#406cb1"/>
    </linearGradient>
    <path d="M135.86 220.093c0-44.702 36.238-80.941 80.945-80.941 44.698 0 80.94 36.239 80.94 80.941 0 44.703-36.242 80.945-80.94 80.945-44.707.001-80.945-36.244-80.945-80.945z" fill="url(#chrome-grad)"/>
    <path d="M413.5 123.039l-120.183 35.237s-18.123-26.596-57.104-35.258c33.776-.115 177.287.021 177.287.021z" fill="#e7ce12"/>
    <path d="M123.137 246.197c-16.89-29.25-86.31-149.16-86.31-149.16l89.029 88.07s-9.149 18.82-5.68 45.7l2.961 15.39z" fill="#bc332c"/>
  </symbol>

  <symbol id="icon-firefox" viewBox="0 0 32 32">
    <path d="M28.9905 10.7265C28.3816 9.2574 27.1473 7.67139 26.1784 7.17039C26.967 8.72015 27.4232 10.2746 27.5976 11.4344C27.5976 11.4344 27.5976 11.4426 27.6005 11.4578C26.0156 7.49777 23.3277 5.90065 21.1327 2.42407C21.0213 2.24869 20.9105 2.07331 20.802 1.88566C20.7407 1.77985 20.6911 1.68397 20.648 1.59336C20.557 1.41757 20.4867 1.23179 20.4386 1.03975C20.439 1.03063 20.4359 1.02169 20.4301 1.01467C20.4243 1.00765 20.4161 1.00305 20.4071 1.00175C20.3985 0.999416 20.3894 0.999416 20.3808 1.00175C20.3785 1.00281 20.3763 1.00419 20.3744 1.00584C20.3709 1.00584 20.3674 1.00994 20.3639 1.0111L20.3697 1.0035C16.8483 3.07063 15.6536 6.89446 15.544 8.80784C14.1368 8.90428 12.7913 9.42358 11.683 10.298C11.5672 10.1998 11.4461 10.1081 11.3202 10.0232C11.0008 8.9027 10.9873 7.71683 11.2811 6.58931C9.84091 7.24697 8.72095 8.28463 7.90664 9.20303H7.90023C7.34433 8.49742 7.38341 6.17015 7.41491 5.68435C7.40849 5.65395 7.00076 5.89656 6.94826 5.93339C6.45773 6.2841 5.9992 6.67771 5.57805 7.1096C5.0988 7.59655 4.66096 8.12276 4.26909 8.68274C3.36752 9.96323 2.72814 11.4101 2.3879 12.9398C2.38149 12.9702 2.37565 13.0017 2.36924 13.0327C2.34299 13.1561 2.24791 13.7751 2.23099 13.9096V13.9406C2.10704 14.5803 2.02984 15.2282 2 15.8791V15.951C2 23.7097 8.27646 30 16.0182 30C22.9521 30 28.7088 24.9549 29.8364 18.328C29.8597 18.1485 29.8789 17.9673 29.8999 17.786C30.1788 15.3763 29.869 12.8439 28.9905 10.7265ZM12.8327 21.7239C12.8981 21.7549 12.9599 21.7894 13.027 21.8197L13.0363 21.8256C12.9692 21.7929 12.901 21.759 12.8333 21.7239H12.8327ZM27.6017 11.4642V11.4508V11.466V11.4642Z" fill="url(#ff-grad0)"/>
    <path d="M28.9907 10.7265C28.3818 9.25741 27.1475 7.67141 26.1786 7.17041C26.9672 8.72017 27.4234 10.2746 27.5978 11.4344V11.4631C28.9208 15.0572 28.1998 18.7121 27.1615 20.9452C25.555 24.4002 21.6661 27.9416 15.578 27.7692C9.00581 27.5821 3.21175 22.6885 2.1297 16.2842C1.93254 15.2735 2.1297 14.7608 2.22886 13.9406C2.10812 14.5725 2.06203 14.7555 2.00195 15.8791V15.951C2.00195 23.7098 8.27842 30 16.0202 30C22.954 30 28.7108 24.9549 29.8383 18.328C29.8616 18.1485 29.8809 17.9673 29.9019 17.7861C30.179 15.3764 29.8692 12.8439 28.9907 10.7265Z" fill="url(#ff-grad1)"/>
    <path d="M28.9907 10.7265C28.3818 9.25741 27.1475 7.67141 26.1786 7.17041C26.9672 8.72017 27.4234 10.2746 27.5978 11.4344V11.4631C28.9208 15.0572 28.1998 18.7121 27.1615 20.9452C25.555 24.4002 21.6661 27.9416 15.578 27.7692C9.00581 27.5821 3.21175 22.6885 2.1297 16.2842C1.93254 15.2735 2.1297 14.7608 2.22886 13.9406C2.10812 14.5725 2.06203 14.7555 2.00195 15.8791V15.951C2.00195 23.7098 8.27842 30 16.0202 30C22.954 30 28.7108 24.9549 29.8383 18.328C29.8616 18.1485 29.8809 17.9673 29.9019 17.7861C30.179 15.3764 29.8692 12.8439 28.9907 10.7265Z" fill="url(#ff-grad2)"/>
    <path d="M22.1776 12.3773C22.2085 12.3989 22.2359 12.4205 22.2651 12.4422C21.9133 11.8161 21.4749 11.243 20.9631 10.7398C16.6058 6.37292 19.821 1.27058 20.3629 1.01102L20.3687 1.00342C16.8473 3.07054 15.6526 6.89438 15.543 8.80776C15.7063 8.79665 15.869 8.78262 16.0353 8.78262C18.6631 8.78262 20.952 10.2312 22.1776 12.3773Z" fill="url(#ff-grad3)"/>
    <path d="M16.0446 13.2499C16.0219 13.6006 14.7899 14.8049 14.3589 14.8049C10.3725 14.8049 9.72559 17.2216 9.72559 17.2216C9.90058 19.2572 11.3157 20.9332 13.0277 21.82C13.1059 21.8604 13.1846 21.8966 13.2611 21.9329C13.3981 21.9913 13.5358 22.0498 13.6729 22.1018C14.26 22.3094 14.8748 22.4276 15.4969 22.4526C22.4838 22.7811 23.8383 14.08 18.7955 11.5534C20.0864 11.3283 21.4269 11.8492 22.1753 12.3759C20.9503 10.2299 18.6608 8.78125 16.033 8.78125C15.8667 8.78125 15.704 8.79528 15.5406 8.80639C14.1345 8.90403 12.7903 9.4239 11.6832 10.2983C11.8973 10.4801 12.1388 10.7221 12.6468 11.2237C13.6 12.1661 16.0394 13.1359 16.0446 13.2499Z" fill="url(#ff-grad4)"/>
    <path d="M16.0446 13.2499C16.0219 13.6006 14.7899 14.8049 14.3589 14.8049C10.3725 14.8049 9.72559 17.2216 9.72559 17.2216C9.90058 19.2572 11.3157 20.9332 13.0277 21.82C13.1059 21.8604 13.1846 21.8966 13.2611 21.9329C13.3981 21.9913 13.5358 22.0498 13.6729 22.1018C14.26 22.3094 14.8748 22.4276 15.4969 22.4526C22.4838 22.7811 23.8383 14.08 18.7955 11.5534C20.0864 11.3283 21.4269 11.8492 22.1753 12.3759C20.9503 10.2299 18.6608 8.78125 16.033 8.78125C15.8667 8.78125 15.704 8.79528 15.5406 8.80639C14.1345 8.90403 12.7903 9.4239 11.6832 10.2983C11.8973 10.4801 12.1388 10.7221 12.6468 11.2237C13.6 12.1661 16.0394 13.1359 16.0446 13.2499Z" fill="url(#ff-grad5)"/>
    <path d="M11.0311 9.83093C11.1448 9.90459 11.2382 9.96656 11.3227 10.0233C11.0034 8.90275 10.9899 7.71688 11.2837 6.58936C9.84345 7.24702 8.72349 8.28468 7.90918 9.20308C7.97509 9.20132 10.0085 9.16449 11.0311 9.83093Z" fill="url(#ff-grad6)"/>
    <path d="M2.1297 16.284C3.21175 22.6883 9.00581 27.5819 15.5827 27.769C21.6707 27.9414 25.5574 24.4 27.1661 20.945C28.2044 18.7113 28.9254 15.057 27.6025 11.4629V11.436C27.6025 11.4395 27.6025 11.4442 27.6054 11.4594C28.1024 14.7138 26.451 17.8665 23.8692 19.9986C23.8666 20.0045 23.8641 20.0106 23.8617 20.0167C18.8306 24.1223 14.0165 22.4936 13.0418 21.8289C12.9741 21.7962 12.9059 21.7623 12.8382 21.7272C9.9047 20.3242 8.69316 17.6438 8.95273 15.3469C6.47656 15.3469 5.63192 13.2529 5.63192 13.2529C5.63192 13.2529 7.85552 11.664 10.7861 13.046C13.5003 14.3262 16.0493 13.2535 16.0493 13.2529C16.0441 13.1389 13.6047 12.1662 12.6533 11.2267C12.1452 10.7251 11.9037 10.4831 11.6896 10.3013C11.5738 10.2031 11.4527 10.1114 11.3268 10.0265C11.2434 9.96809 11.1518 9.90963 11.0352 9.83421C10.0126 9.16778 7.97918 9.20461 7.9121 9.20636H7.90568C7.34978 8.50076 7.38886 6.17348 7.42036 5.68769C7.41395 5.65729 7.00621 5.89989 6.95371 5.93672C6.46318 6.28743 6.00465 6.68104 5.58351 7.11293C5.10426 7.59988 4.66642 8.12609 4.27455 8.68607C3.37298 9.96657 2.7336 11.4134 2.39336 12.9431C2.38228 12.97 1.88354 15.1523 2.1297 16.284Z" fill="url(#ff-grad7)"/>
    <path d="M20.9634 10.7399C21.4752 11.2431 21.9135 11.8162 22.2653 12.4423C22.3383 12.4971 22.4083 12.5557 22.4753 12.6176C25.6532 15.55 23.9908 19.7012 23.8642 19.9993C26.446 17.8673 28.0973 14.7146 27.6003 11.4601C26.0155 7.49777 23.3276 5.90065 21.1325 2.42407C21.0211 2.24869 20.9103 2.07331 20.8018 1.88566C20.7406 1.77985 20.691 1.68397 20.6478 1.59336C20.5569 1.41757 20.4866 1.23179 20.4384 1.03975C20.4388 1.03063 20.4358 1.02169 20.43 1.01467C20.4241 1.00765 20.4159 1.00305 20.4069 1.00175C20.3983 0.999416 20.3893 0.999416 20.3807 1.00175C20.3783 1.00281 20.3762 1.00419 20.3742 1.00584C20.3707 1.00584 20.3672 1.00994 20.3637 1.0111C19.8213 1.27066 16.606 6.37301 20.9634 10.7399Z" fill="url(#ff-grad8)"/>
    <path d="M22.4743 12.6146C22.4073 12.5526 22.3372 12.4941 22.2643 12.4392C22.2357 12.4176 22.206 12.396 22.1768 12.3743C21.4284 11.8482 20.088 11.3267 18.7971 11.5518C23.8393 14.0784 22.4854 22.7795 15.4985 22.451C14.8764 22.426 14.2616 22.3078 13.6744 22.1002C13.5374 22.0488 13.3997 21.9921 13.2626 21.9313C13.1833 21.895 13.1045 21.8588 13.0293 21.8185L13.0386 21.8243C14.0133 22.4908 18.8274 24.1194 23.8585 20.0121C23.8585 20.0121 23.8614 20.0045 23.8661 19.9939C23.9909 19.7011 25.6534 15.5499 22.4743 12.6146Z" fill="url(#ff-grad9)"/>
    <path d="M9.72532 17.2215C9.72532 17.2215 10.3722 14.8048 14.3586 14.8048C14.7897 14.8048 16.0216 13.5994 16.0444 13.2498C16.0671 12.9002 13.4953 14.3231 10.7811 13.0428C7.85055 11.6608 5.62695 13.2498 5.62695 13.2498C5.62695 13.2498 6.47159 15.3438 8.94776 15.3438C8.68819 17.6407 9.89973 20.3187 12.8332 21.7241C12.8986 21.755 12.9604 21.7895 13.0275 21.8199C11.3154 20.9349 9.90207 19.2571 9.72532 17.2215Z" fill="url(#ff-grad10)"/>
    <defs>
      <linearGradient id="ff-grad0" x1="27.135" y1="5.49261" x2="3.81392" y2="27.9437" gradientUnits="userSpaceOnUse">
        <stop offset="0.05" stop-color="#FFF44F"/><stop offset="0.11" stop-color="#FFE847"/><stop offset="0.22" stop-color="#FFC830"/><stop offset="0.37" stop-color="#FF980E"/><stop offset="0.4" stop-color="#FF8B16"/><stop offset="0.46" stop-color="#FF672A"/><stop offset="0.53" stop-color="#FF3647"/><stop offset="0.7" stop-color="#E31587"/>
      </linearGradient>
      <radialGradient id="ff-grad1" cx="0" cy="0" r="1" gradientUnits="userSpaceOnUse" gradientTransform="translate(26.0596 4.21879) scale(29.2246 29.2888)">
        <stop offset="0.13" stop-color="#FFBD4F"/><stop offset="0.19" stop-color="#FFAC31"/><stop offset="0.25" stop-color="#FF9D17"/><stop offset="0.28" stop-color="#FF980E"/><stop offset="0.4" stop-color="#FF563B"/><stop offset="0.47" stop-color="#FF3750"/><stop offset="0.71" stop-color="#F5156C"/><stop offset="0.78" stop-color="#EB0878"/><stop offset="0.86" stop-color="#E50080"/>
      </radialGradient>
      <radialGradient id="ff-grad2" cx="0" cy="0" r="1" gradientUnits="userSpaceOnUse" gradientTransform="translate(15.3809 16.1925) scale(29.2246 29.2888)">
        <stop offset="0.3" stop-color="#960E18"/><stop offset="0.35" stop-color="#B11927" stop-opacity="0.74"/><stop offset="0.43" stop-color="#DB293D" stop-opacity="0.34"/><stop offset="0.5" stop-color="#F5334B" stop-opacity="0.09"/><stop offset="0.53" stop-color="#FF3750" stop-opacity="0"/>
      </radialGradient>
      <radialGradient id="ff-grad3" cx="0" cy="0" r="1" gradientUnits="userSpaceOnUse" gradientTransform="translate(18.904 -2.42815) scale(21.172 21.2184)">
        <stop offset="0.13" stop-color="#FFF44F"/><stop offset="0.25" stop-color="#FFDC3E"/><stop offset="0.51" stop-color="#FF9D12"/><stop offset="0.53" stop-color="#FF980E"/>
      </radialGradient>
      <radialGradient id="ff-grad4" cx="0" cy="0" r="1" gradientUnits="userSpaceOnUse" gradientTransform="translate(12.1487 23.8433) scale(13.915 13.9455)">
        <stop offset="0.35" stop-color="#3A8EE6"/><stop offset="0.47" stop-color="#5C79F0"/><stop offset="0.67" stop-color="#9059FF"/><stop offset="1" stop-color="#C139E6"/>
      </radialGradient>
      <radialGradient id="ff-grad5" cx="0" cy="0" r="1" gradientUnits="userSpaceOnUse" gradientTransform="translate(15.8005 12.7119) rotate(-13.9265) scale(7.37316 8.67852)">
        <stop offset="0.21" stop-color="#9059FF" stop-opacity="0"/><stop offset="0.28" stop-color="#8C4FF3" stop-opacity="0.06"/><stop offset="0.75" stop-color="#7716A8" stop-opacity="0.45"/><stop offset="0.97" stop-color="#6E008B" stop-opacity="0.6"/>
      </radialGradient>
      <radialGradient id="ff-grad6" cx="0" cy="0" r="1" gradientUnits="userSpaceOnUse" gradientTransform="translate(15.011 3.02041) scale(10.0108 10.0328)">
        <stop stop-color="#FFE226"/><stop offset="0.12" stop-color="#FFDB27"/><stop offset="0.3" stop-color="#FFC82A"/><stop offset="0.5" stop-color="#FFA930"/><stop offset="0.73" stop-color="#FF7E37"/><stop offset="0.79" stop-color="#FF7139"/>
      </radialGradient>
      <radialGradient id="ff-grad7" cx="0" cy="0" r="1" gradientUnits="userSpaceOnUse" gradientTransform="translate(22.8805 -3.34313) scale(42.7109 42.8046)">
        <stop offset="0.11" stop-color="#FFF44F"/><stop offset="0.46" stop-color="#FF980E"/><stop offset="0.62" stop-color="#FF5634"/><stop offset="0.72" stop-color="#FF3647"/><stop offset="0.9" stop-color="#E31587"/>
      </radialGradient>
      <radialGradient id="ff-grad8" cx="0" cy="0" r="1" gradientUnits="userSpaceOnUse" gradientTransform="translate(18.7517 1.33374) rotate(84.2447) scale(31.1996 20.4543)">
        <stop stop-color="#FFF44F"/><stop offset="0.06" stop-color="#FFE847"/><stop offset="0.17" stop-color="#FFC830"/><stop offset="0.3" stop-color="#FF980E"/><stop offset="0.36" stop-color="#FF8B16"/><stop offset="0.45" stop-color="#FF672A"/><stop offset="0.57" stop-color="#FF3647"/><stop offset="0.74" stop-color="#E31587"/>
      </radialGradient>
      <radialGradient id="ff-grad9" cx="0" cy="0" r="1" gradientUnits="userSpaceOnUse" gradientTransform="translate(14.7757 6.73593) scale(26.6644 26.723)">
        <stop offset="0.14" stop-color="#FFF44F"/><stop offset="0.48" stop-color="#FF980E"/><stop offset="0.59" stop-color="#FF5634"/><stop offset="0.66" stop-color="#FF3647"/><stop offset="0.9" stop-color="#E31587"/>
      </radialGradient>
      <radialGradient id="ff-grad10" cx="0" cy="0" r="1" gradientUnits="userSpaceOnUse" gradientTransform="translate(21.8145 8.30059) scale(29.1844 29.2484)">
        <stop offset="0.09" stop-color="#FFF44F"/><stop offset="0.23" stop-color="#FFE141"/><stop offset="0.51" stop-color="#FFAF1E"/><stop offset="0.63" stop-color="#FF980E"/>
      </radialGradient>
    </defs>
  </symbol>

  <symbol id="icon-webkit" viewBox="0 0 73 73">
    <defs>
      <linearGradient x1="50%" y1="0%" x2="50%" y2="100%" id="webkit-grad">
        <stop stop-color="#34AADC" offset="0%"/>
        <stop stop-color="#007AFF" offset="100%"/>
      </linearGradient>
    </defs>
    <g transform="translate(2,2)" fill="#FFFFFF" fill-rule="nonzero" stroke="#074483" stroke-width="2">
      <rect x="-1" y="-1" width="71" height="71" rx="14"/>
    </g>
    <g transform="translate(12,10)" fill-rule="nonzero">
      <path d="M46.2041595,30.1240072 C49.5483945,32.7317084 49.5483945,37.0217974 46.2041595,39.6500394 L30.4718766,52.0155903 C27.1276416,54.6232915 21.6833562,54.6232915 18.3391212,52.0155903 L2.60683832,39.6715584 C-0.737005399,37.0638571 -0.737005399,32.7737681 2.60674051,30.1445479 L18.3390234,17.7799752 C21.6832584,15.172274 27.1275438,15.172274 30.4717788,17.7799752 L46.2040617,30.1240072 Z" fill="#FF9D00"/>
      <path d="M18.3772684,44.2971469 L2.57455995,31.8777987 C0.98157338,30.6297017 0.0989066243,28.9580732 0.0989066243,27.1808065 C0.0989066243,25.4035398 0.98157338,23.7319114 2.57475557,22.4838143 L18.377464,10.0429472 C19.9708418,8.79485016 22.1237114,8.09665919 24.4056945,8.09665919 C26.6876776,8.09665919 28.8190283,8.79485016 30.433925,10.0429472 L46.2366335,22.4622954 C47.8300113,23.7113706 48.7122868,25.3820209 48.7122868,27.1592876 C48.7122868,28.9365543 47.8300113,30.6081827 46.2366335,31.8562798 L30.433925,44.2766061 C28.8190283,45.5452439 26.6876776,46.2436305 24.4056945,46.2436305 C22.1237114,46.2436305 19.9923608,45.5452439 18.377464,44.2971469 Z" fill="#FFCC00"/>
      <path d="M18.3772684,36.472087 L2.57455995,24.0527388 C0.98157338,22.8046418 0.0989066243,21.1330133 0.0989066243,19.3557466 C0.0989066243,17.5784799 0.98157338,15.9068515 2.57475557,14.6587544 L18.377464,2.21788732 C19.9708418,0.969790267 22.1237114,0.271599298 24.4056945,0.271599298 C26.6876776,0.271599298 28.8190283,0.969790267 30.433925,2.21808295 L46.2366335,14.6374311 C47.8300113,15.8865063 48.7122868,17.5571566 48.7122868,19.3344233 C48.7122868,21.1116901 47.8300113,22.7833185 46.2366335,24.0314155 L30.433925,36.4517418 C28.8190283,37.7203797 26.6876776,38.4187663 24.4056945,38.4187663 C22.1237114,38.4187663 19.9923608,37.7203797 18.377464,36.4722826 Z" fill="url(#webkit-grad)"/>
      <path d="M24.4602743,31.2576627 C32.534758,31.2576627 39.0813987,25.907278 39.0813987,19.30684 C39.0813987,12.7054238 32.534758,7.35503914 24.4602743,7.35503914 C16.3848125,7.35484351 9.83914992,12.7054238 9.83914992,19.30684 C9.83914992,25.907278 16.3848125,31.2576627 24.4602743,31.2576627 Z M24.4602743,32.4881534 C15.5533999,32.4881534 8.33380403,26.586102 8.33380403,19.30684 C8.33380403,12.0265999 15.5533999,6.12454847 24.4602743,6.12454847 C33.3661706,6.12454847 40.5867446,12.0265999 40.5867446,19.30684 C40.5867446,26.586102 33.3661706,32.4881534 24.4602743,32.4881534 Z" fill="#FFFFFF"/>
      <path d="M25.5381763,24.3794351 C26.3461138,24.2737968 27.1335104,24.0478481 27.8553722,23.7035455 L32.4574855,25.5952537 L30.046389,21.9839886 C31.3150268,20.3495292 31.3150268,18.280779 30.046389,16.6472978 L32.4574855,13.0360326 L28.119468,14.81819 L27.9952451,16.7255484 C29.7685993,18.2132879 29.7236052,20.561784 27.8808036,21.9976825 C27.4103219,22.3732853 26.8703928,22.6373811 26.3040541,22.8251825 L25.5381763,24.3794351 Z M23.3862849,14.2479388 C22.051134,14.4220464 21.0505045,14.9277408 21.0505045,14.9277408 L16.4523037,13.0360326 L18.8634002,16.6472978 C17.5947624,18.280779 17.5947624,20.3495292 18.8634002,21.9839886 L16.4523037,25.5952537 L20.9086753,23.7632116 L21.0035541,21.9771417 C19.1392336,20.4942928 19.1539056,18.1223215 21.0338762,16.6326258 C21.4711015,16.2413728 22.4599934,15.8266446 22.6076914,15.8051257 L23.3862849,14.2479388 Z" fill="#8CC8F6"/>
      <path d="M22.2477386,18.9116745 L21.6354277,29.7689451 L26.5955375,19.7000492 L27.3056617,8.86331943 L22.2477386,18.9116745 Z M22.18416,27.6825885 L26.1563561,19.6217986 L22.6751825,18.9869907 L22.18416,27.6825885 Z" fill="#FFFFFF"/>
    </g>
  </symbol>

  <symbol id="icon-browser-generic" viewBox="0 0 24 24" fill="none">
    <circle cx="12" cy="12" r="9" stroke="#64748b" stroke-width="1.5"/>
    <ellipse cx="12" cy="12" rx="4" ry="9" stroke="#64748b" stroke-width="1.5"/>
    <path d="M3 12h18M3 8h18M3 16h18" stroke="#64748b" stroke-width="1" stroke-dasharray="2 2"/>
  </symbol>

  <!-- ── OS ───────────────────────────────────────────────────────────────── -->

  <symbol id="icon-os-windows" viewBox="0 0 24 24" fill="none">
    <path d="M3 5.5L10.5 4.5V11.5H3V5.5Z" fill="#00adef"/>
    <path d="M11.5 4.4L21 3V11.5H11.5V4.4Z" fill="#00adef"/>
    <path d="M3 12.5H10.5V19.5L3 18.5V12.5Z" fill="#00adef"/>
    <path d="M11.5 12.5H21V21L11.5 19.6V12.5Z" fill="#00adef"/>
  </symbol>

  <symbol id="icon-os-mac" viewBox="0 0 24 24" fill="none">
    <path d="M17.05 20.28c-.98.95-2.05.8-3.08.35-1.09-.46-2.09-.48-3.24 0-1.44.62-2.2.44-3.06-.35C2.79 15.25 3.51 7.7 9.05 7.4c1.28.07 2.18.76 2.93.79 1.12-.22 2.2-.93 3.39-.84 1.45.12 2.53.7 3.23 1.78-2.97 1.78-2.26 5.71.35 6.83-.41 1.04-.96 2.07-1.9 3.12zm-3.3-14.6c-.08 2.16-1.65 3.85-3.64 3.68-.26-1.98 1.56-3.84 3.64-3.68z" fill="#999"/>
  </symbol>

  <symbol id="icon-os-linux" viewBox="0 0 24 24" fill="none">
    <path d="M12 2C6.48 2 2 6.48 2 12s4.48 10 10 10 10-4.48 10-10S17.52 2 12 2zm0 3c1.1 0 2 .9 2 2s-.9 2-2 2-2-.9-2-2 .9-2 2-2zm0 14.2c-2.5 0-4.71-1.28-6-3.22.03-1.99 4-3.08 6-3.08 1.99 0 5.97 1.09 6 3.08-1.29 1.94-3.5 3.22-6 3.22z" fill="#f5a623"/>
  </symbol>

  <symbol id="icon-os-generic" viewBox="0 0 24 24" fill="none">
    <rect x="2" y="3" width="20" height="14" rx="2" stroke="#64748b" stroke-width="1.5"/>
    <path d="M8 21h8M12 17v4" stroke="#64748b" stroke-width="1.5" stroke-linecap="round"/>
  </symbol>

  <!-- ── Executors ─────────────────────────────────────────────────────────── -->

  <symbol id="icon-exec-github" viewBox="0 0 24 24" fill="currentColor">
    <path d="M12 2C6.477 2 2 6.484 2 12.017c0 4.425 2.865 8.18 6.839 9.504.5.092.682-.217.682-.483 0-.237-.008-.868-.013-1.703-2.782.605-3.369-1.343-3.369-1.343-.454-1.158-1.11-1.466-1.11-1.466-.908-.62.069-.608.069-.608 1.003.07 1.531 1.032 1.531 1.032.892 1.53 2.341 1.088 2.91.832.092-.647.35-1.088.636-1.338-2.22-.253-4.555-1.113-4.555-4.951 0-1.093.39-1.988 1.029-2.688-.103-.253-.446-1.272.098-2.65 0 0 .84-.27 2.75 1.026A9.564 9.564 0 0 1 12 6.844a9.59 9.59 0 0 1 2.504.337c1.909-1.296 2.747-1.027 2.747-1.027.546 1.379.202 2.398.1 2.651.64.7 1.028 1.595 1.028 2.688 0 3.848-2.339 4.695-4.566 4.943.359.309.678.92.678 1.855 0 1.338-.012 2.419-.012 2.747 0 .268.18.58.688.482A10.02 10.02 0 0 0 22 12.017C22 6.484 17.522 2 12 2z"/>
  </symbol>

  <symbol id="icon-exec-gitlab" viewBox="0 0 24 24" fill="currentColor">
    <path d="M22.65 14.39L12 22.13 1.35 14.39a.84.84 0 0 1-.3-.94l1.22-3.78 2.44-7.51A.42.42 0 0 1 4.82 2a.43.43 0 0 1 .58 0 .42.42 0 0 1 .11.18l2.44 7.49h8.1l2.44-7.51A.42.42 0 0 1 18.6 2a.43.43 0 0 1 .58 0 .42.42 0 0 1 .11.18l2.44 7.51L23 13.45a.84.84 0 0 1-.35.94z"/>
  </symbol>

  <symbol id="icon-exec-jenkins" viewBox="0 0 24 24" fill="currentColor">
    <path d="M12 2a10 10 0 1 0 0 20A10 10 0 0 0 12 2zm0 3a2 2 0 1 1 0 4 2 2 0 0 1 0-4zm0 14.5c-2.5 0-4.71-1.28-6-3.22.03-1.99 4-3.08 6-3.08s5.97 1.09 6 3.08c-1.29 1.94-3.5 3.22-6 3.22z"/>
  </symbol>

  <symbol id="icon-exec-local" viewBox="0 0 24 24" fill="none" stroke="currentColor" stroke-width="1.5" stroke-linecap="round">
    <rect x="2" y="3" width="20" height="14" rx="2"/>
    <path d="M8 21h8M12 17v4"/>
  </symbol>

  <symbol id="icon-exec-generic" viewBox="0 0 24 24" fill="none" stroke="currentColor" stroke-width="1.5" stroke-linecap="round">
    <rect x="2" y="2" width="20" height="8" rx="2"/>
    <rect x="2" y="14" width="20" height="8" rx="2"/>
    <circle cx="6" cy="6" r="1" fill="currentColor" stroke="none"/>
    <circle cx="6" cy="18" r="1" fill="currentColor" stroke="none"/>
  </symbol>

</svg>